PathFileType	4	(X/Y/Z)	/Users/visionmauri/Downloads/Videos/OAW05-top_Sports2D/OAW05-top_Sports2D_px_person00.trc
DataRate	CameraRate	NumFrames	NumMarkers	Units	OrigDataRate	OrigDataStartFrame	OrigNumFrames
28.0	28.0	11	22	m	28.0	545	2182
Frame#	Time	Hip			RHip			RKnee			RAnkle			RBigToe			RSmallToe			RHeel			LHip			LKnee			LAnkle			LBigToe			LSmallToe			LHeel			Neck			Head			Nose			RShoulder			RElbow			RWrist			LShoulder			LElbow			LWrist			
		X1	Y1	Z1	X2	Y2	Z2	X3	Y3	Z3	X4	Y4	Z4	X5	Y5	Z5	X6	Y6	Z6	X7	Y7	Z7	X8	Y8	Z8	X9	Y9	Z9	X10	Y10	Z10	X11	Y11	Z11	X12	Y12	Z12	X13	Y13	Z13	X14	Y14	Z14	X15	Y15	Z15	X16	Y16	Z16	X17	Y17	Z17	X18	Y18	Z18	X19	Y19	Z19	X20	Y20	Z20	X21	Y21	Z21	X22	Y22	Z22
545	19.473210191917207	543.0916336717111	579.7029901506274	0.0	565.8542371540537	582.7347433067578	0.0	548.6825199158903	675.6398076138914	0.0	539.7578232825712	761.0913923181924	0.0	535.0611076296092	789.4088617333465	0.0	549.3798630627988	791.1731947084637	0.0	536.6067916234487	782.6512679645813	0.0	519.8453516355361	582.501140083757	0.0	514.3882777886357	674.3019956920996	0.0	511.4383952360791	756.9679041508379	0.0	520.6269381142803	807.187504748111	0.0	502.27777868146757	806.3733204888595	0.0	513.9567069059967	782.7660295467201	0.0	549.4268550921657	446.00016050385534	0.0	547.0930098045346	396.7553356494367	0.0	554.5721123960182	434.49837461699764	0.0	590.9829555090118	459.5089259448114	0.0	601.2813278928971	536.949928726125	0.0	602.6254650324896	602.7514804758431	0.0	507.87120117878885	455.23246520545484	0.0	496.62151229928526	529.2973801615851	0.0	490.7222040023434	590.4439412134631	0.0
546	19.50894085281981	544.1251461622173	577.0992283000356	0.0	566.3295217964262	579.9007135420724	0.0	549.7664119855127	673.9122034309582	0.0	540.4836914386237	760.7362045610301	0.0	535.3566135937742	787.6362962697932	0.0	549.0587888026489	789.7673257642194	0.0	537.7720300402717	782.9437713529685	0.0	521.6628235847754	579.5656552407374	0.0	514.4304434784503	669.8161451012724	0.0	511.18471145924394	745.0797561178491	0.0	521.0900204522192	798.1471903951481	0.0	502.94865269203217	796.581537953752	0.0	513.9537618305449	767.0042171907892	0.0	549.7596837901765	443.95869989100527	0.0	548.9899102246967	394.7740156751986	0.0	555.7536581434537	432.68681114308924	0.0	591.1458837673941	457.1215948709459	0.0	601.509498761105	534.1315979973332	0.0	602.9192173664975	598.3416975557627	0.0	508.4782093968005	452.8698631357965	0.0	496.95457150302565	527.0107645291739	0.0	489.6112463457936	587.7064003125946	0.0
547	19.54467151372241	543.7695420382584	573.3520452797271	0.0	566.0285275001753	575.8977803200113	0.0	550.7064817126837	670.3351496651599	0.0	540.8679265922628	760.8763959993864	0.0	535.1591851696801	786.4563591698526	0.0	549.0742234425443	788.5792384061164	0.0	538.5184523889445	781.587739365336	0.0	521.535462857484	574.714177990811	0.0	514.1444812945691	664.5394574697273	0.0	511.2185304508611	738.6638824678616	0.0	521.6437827208416	788.1838628451051	0.0	503.7030464844482	786.8746216969399	0.0	514.0178684056464	757.4807493942976	0.0	550.1155374015515	441.66194971024197	0.0	550.1852568510136	391.43407500292807	0.0	556.7337066990548	428.418643554825	0.0	591.7038331992012	453.8100621381843	0.0	601.3205453843425	529.9692484791052	0.0	602.3059453741653	593.8444366112893	0.0	508.6547422187742	449.78859326458905	0.0	496.97797515913106	523.3573393633617	0.0	488.2625929073193	583.7467932301129	0.0
548	19.580402174625007	542.7410001525772	570.1001240544305	0.0	565.1117157549875	572.49828864579	0.0	551.3423346211539	667.1142716713435	0.0	540.9108993663091	761.3238175691957	0.0	534.6051013256483	785.9535589050877	0.0	550.1676261607632	788.247816202973	0.0	538.6922256229036	780.4666908825355	0.0	520.4145772138786	570.7536769838023	0.0	513.3654963169943	660.1651851140966	0.0	511.28708260007124	736.1697779912981	0.0	520.6950800373769	778.9841902394551	0.0	503.38716910916577	778.5096576991393	0.0	513.9184681833118	754.1764182028398	0.0	550.6470433254065	438.70099794964204	0.0	550.2728728149376	388.38910111634743	0.0	555.8742581253365	423.93991699247357	0.0	592.3723440403502	450.4721672075127	0.0	600.9853224011246	525.7536017635937	0.0	600.6752804207831	589.5103489048856	0.0	509.0199178114267	446.76243123933074	0.0	496.9669513920385	519.2133506429506	0.0	486.83735276715254	579.7234778533098	0.0
549	19.61613283552761	541.8249089257716	568.4933590621749	0.0	564.0466386944173	570.8524386834431	0.0	551.760621330451	665.8865666196874	0.0	540.9182822284436	761.8259919657844	0.0	534.0941515405557	784.3300059162507	0.0	551.9187405192247	787.7152821173053	0.0	538.8536465836352	780.7326133204728	0.0	519.2069798182047	569.2714198156161	0.0	512.1387248305025	658.2315279425194	0.0	511.09054775761996	736.0439982519514	0.0	518.3532172360221	771.4892914041376	0.0	502.09693301158643	771.699855807994	0.0	513.4791120711667	754.1017860795315	0.0	551.2527764506946	434.75798956877435	0.0	550.4506064513961	386.24643864033493	0.0	554.1047750721802	421.1906931366017	0.0	592.6387290946201	447.9620142904447	0.0	600.9150540133066	522.6112119879464	0.0	598.7486139982593	585.4257746311574	0.0	510.11281741582127	444.2135412221967	0.0	497.0360628481659	515.9139096102549	0.0	485.70292950959146	576.719778936546	0.0
550	19.65186349643021	541.0179290713627	567.6123997837564	0.0	563.0859680570238	570.1913098176938	0.0	552.0860322093521	665.5642564703154	0.0	541.0716104728567	762.0475943522649	0.0	533.6412858294647	782.0776149915051	0.0	552.9768477948217	786.9169875337911	0.0	539.1069219261466	781.2161551966685	0.0	517.9609173183542	568.7613657711207	0.0	510.7892169063369	657.847376822083	0.0	510.0762590832755	737.0147244627777	0.0	515.2891474728441	765.1663016166347	0.0	499.82257394209813	765.9289319239459	0.0	512.1267404601641	755.1195974075255	0.0	551.5621804342986	431.6390149047685	0.0	551.162236491362	384.9485010175331	0.0	553.2402825165522	420.3033059207218	0.0	592.3259363370345	446.8872208976667	0.0	600.6703756978662	520.6361144289991	0.0	597.009002517909	581.8175521729394	0.0	511.4000397713287	442.6849519754903	0.0	496.79378081542967	514.0233800256183	0.0	484.75392573187384	575.2893805688742	0.0
551	19.68759415733281	540.072905070932	566.1621016503715	0.0	562.2891029374146	569.2849516800585	0.0	552.3580594702921	664.5992123051005	0.0	541.3170782861728	761.6942993416242	0.0	533.1614609518285	780.9074959902273	0.0	552.8336551665493	786.4979486471592	0.0	539.1324386332184	780.7617736953126	0.0	516.8483147622445	567.4283885050629	0.0	509.8358129651946	656.3121339313782	0.0	508.2246677157611	736.9191193777046	0.0	511.4922067651529	757.1906413622821	0.0	496.6460787168639	759.1281319009366	0.0	510.0634819951648	754.9594791309302	0.0	551.0943347576958	431.049138215624	0.0	551.3031373911914	384.99171939099716	0.0	552.7015266409254	420.7668596966322	0.0	591.3749618639795	447.06990278344165	0.0	599.6010300746009	519.4847993369532	0.0	595.3542195606891	578.7480499563515	0.0	511.7799315360534	442.5551935364913	0.0	495.809065808344	513.3923824559342	0.0	483.54873047478424	575.1490311765496	0.0
552	19.72332481823541	539.0780408310633	564.6834198904934	0.0	561.7056269856938	568.1073610843407	0.0	552.5839870126562	663.2906010192406	0.0	541.4890836040892	760.9030764920508	0.0	532.7307372225517	781.0623581239939	0.0	552.2720586421178	786.4592388472671	0.0	539.0986325035853	779.5176965396773	0.0	516.4380578369417	565.8898800342421	0.0	509.45215897138945	652.4487077238734	0.0	506.69493420592903	734.0971166650442	0.0	507.9366380642105	745.5981605624327	0.0	494.2962708928583	749.7087042019152	0.0	508.81788140998793	751.3170667323697	0.0	549.8734638707083	432.1408702593929	0.0	550.2105320141079	386.4076722764373	0.0	551.0021735898035	422.17075559636885	0.0	589.9213575349288	447.6278209311101	0.0	598.063468038498	518.9129052554487	0.0	593.610967673658	575.8423722036446	0.0	510.9889829690857	443.44725284988795	0.0	494.3897461332425	513.7737128681259	0.0	482.0189848911494	575.4436052201996	0.0
553	19.75905547913801	538.2046929249226	564.373363496179	0.0	561.3373665969158	567.5271746990943	0.0	552.667900005404	662.6830731315972	0.0	541.4680594320453	760.3370527871133	0.0	532.4316749418853	781.7548304694252	0.0	551.9713160711608	786.5418152231405	0.0	539.3877054720888	778.4447378559421	0.0	516.6583509102056	565.628439341172	0.0	509.37240001882856	648.0609342742247	0.0	506.8138738209076	729.1816955669588	0.0	506.75485240610845	733.0359415554659	0.0	494.7382747697971	739.3474365345866	0.0	509.6257761034782	744.8461018263424	0.0	548.4956807862904	433.4071517772485	0.0	548.6218992276979	387.69807252018813	0.0	548.8303861716852	423.7160377239532	0.0	588.4665631823964	448.129028735477	0.0	596.8489960952368	518.8394523993339	0.0	591.7036895207584	573.3638854319631	0.0	509.705362358987	444.62850671471574	0.0	493.22298616575847	514.7072722556452	0.0	480.6179787531618	575.5736771509842	0.0
554	19.79478614004061	537.2818868704782	564.7613004894577	0.0	560.8684480945527	567.781103168331	0.0	552.4777366913122	662.5742038032744	0.0	541.3845822697836	760.2273613078197	0.0	532.6551036448398	782.5052784355046	0.0	551.9325159636737	786.7297335756308	0.0	539.8561289917991	778.1893394657689	0.0	516.4621097154527	566.3006554322125	0.0	509.4916825244948	645.5992562391787	0.0	508.7387956797401	724.4294448846803	0.0	508.2204739950161	724.1484404501742	0.0	497.12284570227087	731.510959073419	0.0	512.0764379797333	739.2081712364364	0.0	547.1781587327536	434.45874397596504	0.0	547.1268695709005	388.0941824639698	0.0	547.201223467881	424.6843588110254	0.0	587.2686925933145	448.78796484790837	0.0	595.6977657385745	519.1138651952577	0.0	589.6430679145366	572.3308023520027	0.0	508.44588461668735	445.733897044029	0.0	492.399640644933	515.6421150171582	0.0	479.6362399631077	575.5173942126244	0.0
555	19.83051680094321	536.1388636704029	564.6984948310081	0.0	559.8753420776814	568.0450050295859	0.0	551.957449711685	661.6515102677484	0.0	541.5818158213085	759.4830965738904	0.0	533.6531473790251	782.8561692537016	0.0	552.1334659360955	786.715207008823	0.0	540.0293425776575	777.9026177981051	0.0	515.2512578312989	566.5676229520654	0.0	510.1135608996276	645.5143075646711	0.0	511.5582505450414	721.5934658527779	0.0	510.2432727224332	720.4925814176684	0.0	498.98211608762676	728.1304348290012	0.0	514.8140637414842	736.9821023996398	0.0	545.4770861284128	435.2149228408306	0.0	545.270190886168	388.77113183124067	0.0	545.0698483077987	425.1425082308176	0.0	585.824020594199	449.5850840193853	0.0	593.6130015269215	519.4236230485031	0.0	587.5855953675062	572.6397619611689	0.0	507.0149462634718	446.7158783010558	0.0	491.5655575329684	516.4333666123002	0.0	478.86092383079324	575.5130216951926	0.0
